<svg xmlns="http://www.w3.org/2000/svg" width="40" height="32"><defs><linearGradient id="bs-logo-a" x1="76.079" x2="523.48" y1="10.798" y2="365.945" gradientUnits="userSpaceOnUse" gradientTransform="scale(.07813 .07843)"><stop stop-color="#9013fe"/><stop offset="1" stop-color="#6610f2"/></linearGradient><linearGradient id="bs-logo-b" x1="193.508" x2="293.514" y1="109.74" y2="278.872" gradientUnits="userSpaceOnUse"><stop stop-color="#fff"/><stop offset="1" stop-color="#f1e5fc"/></linearGradient><filter xmlns="http://www.w3.org/2000/svg" id="bs-logo-c" width="197" height="249" x="161.901" y="83.457" color-interpolation-filters="sRGB" filterUnits="userSpaceOnUse"><feFlood flood-opacity="0" result="BackgroundImageFix"/><feColorMatrix in="SourceAlpha" values="0 0 0 0 0 0 0 0 0 0 0 0 0 0 0 0 0 0 127 0"/><feOffset dy="4"/><feGaussianBlur stdDeviation="8"/><feColorMatrix values="0 0 0 0 0 0 0 0 0 0 0 0 0 0 0 0 0 0 0.15 0"/><feBlend in2="BackgroundImageFix" result="effect1_dropShadow"/><feBlend in="SourceGraphic" in2="effect1_dropShadow" result="shape"/></filter></defs><path fill="url(#bs-logo-a)" d="M4.413 4.182C4.337 2.006 6.026 0 8.308 0h23.387c2.282 0 3.97 2.006 3.895 4.182-.072 2.09.022 4.797.7 7.005.681 2.214 1.83 3.614 3.71 3.793v2.04c-1.88.18-3.029 1.58-3.71 3.793-.678 2.208-.772 4.915-.7 7.005.076 2.176-1.613 4.182-3.895 4.182H8.308c-2.282 0-3.97-2.006-3.895-4.182.072-2.09-.022-4.797-.7-7.005C3.03 18.6 1.88 17.2 0 17.02v-2.04c1.88-.18 3.031-1.58 3.712-3.793.679-2.208.773-4.915.7-7.005z"/><path fill="url(#bs-logo-b)" filter="url(#bs-logo-c)" stroke="#fff" transform="scale(.07813 .07843)" d="M267.103 312.457c47.297 0 75.798-23.158 75.798-61.355 0-28.873-20.336-49.776-50.532-53.085v-1.203c22.185-3.609 39.594-24.211 39.594-47.219 0-32.783-25.882-54.138-65.322-54.138h-88.74v217zm-54.692-189.48h45.911c24.958 0 39.131 11.128 39.131 31.279 0 21.505-16.484 33.535-46.372 33.535h-38.67zm0 161.961v-71.431h45.602c32.661 0 49.608 12.03 49.608 35.49 0 23.459-16.484 35.941-47.605 35.941z"/></svg>
